<svg width="126" height="24" viewBox="0 0 126 24" fill="none" xmlns="http://www.w3.org/2000/svg">
<path d="M118.662 8.80939C118.662 8.78849 118.662 8.78849 118.662 8.80939C118.809 8.72581 118.955 8.66312 119.122 8.57954C119.143 8.55864 119.164 8.55864 119.226 8.53775C119.373 8.45417 119.561 8.37059 119.707 8.26612C119.665 8.24522 117.722 7.51389 116.991 6.32288C117.221 6.44825 118.913 7.13779 120.961 7.30495L121.003 7.26315C121.608 6.6781 122.11 6.15572 122.465 5.69603C122.465 5.69603 120.961 5.40351 119.916 4.56771C120.125 4.6095 121.671 4.83934 123.405 4.46323C123.698 4.00355 124.011 3.56475 124.241 3.10506L124.576 2.47821C125.537 0.660355 125.537 -0.238128 125.056 0.0544009C123.05 1.32899 119.916 -0.196338 117.701 0.158876C112.812 0.911093 111.767 4.6095 111.537 6.15573C111.433 6.2602 111.307 6.36467 111.245 6.44825C110.973 6.71989 110.66 7.03331 110.367 7.32584C109.155 8.55864 109.03 8.83028 109.113 9.12281C109.134 9.22728 109.197 9.60339 109.239 9.68697C109.615 9.08102 110.346 8.09896 111.6 7.01242C113.292 5.4453 116.113 3.48117 119.916 2.87522C119.916 2.87522 114.212 5.04829 112.31 7.70195C114.065 9.1437 115.967 9.51981 117.68 9.1646C117.68 9.1646 117.889 9.12281 118.14 9.06012C118.286 8.95565 118.474 8.87207 118.662 8.80939Z" fill="#046A38"/>
<path d="M118.662 8.80939C118.662 8.78849 118.662 8.78849 118.662 8.80939C118.809 8.72581 118.955 8.66312 119.122 8.57954C119.143 8.55864 119.164 8.55864 119.226 8.53775C119.373 8.45417 119.561 8.37059 119.707 8.26612C119.665 8.24522 117.722 7.51389 116.991 6.32288C117.221 6.44825 118.913 7.13779 120.961 7.30495L121.003 7.26315C121.608 6.6781 122.11 6.15572 122.465 5.69603C122.465 5.69603 120.961 5.40351 119.916 4.56771C120.125 4.6095 121.671 4.83934 123.405 4.46323C123.698 4.00355 124.011 3.56475 124.241 3.10506L124.576 2.47821C125.537 0.660355 125.537 -0.238128 125.056 0.0544009C123.05 1.32899 119.916 -0.196338 117.701 0.158876C112.812 0.911093 111.767 4.6095 111.537 6.15573C111.433 6.2602 111.307 6.36467 111.245 6.44825C110.973 6.71989 110.66 7.03331 110.367 7.32584C109.155 8.55864 109.03 8.83028 109.113 9.12281C109.134 9.22728 109.197 9.60339 109.239 9.68697C109.615 9.08102 110.346 8.09896 111.6 7.01242C113.292 5.4453 116.113 3.48117 119.916 2.87522C119.916 2.87522 114.212 5.04829 112.31 7.70195C114.065 9.1437 115.967 9.51981 117.68 9.1646C117.68 9.1646 117.889 9.12281 118.14 9.06012C118.286 8.95565 118.474 8.87207 118.662 8.80939Z" fill="#046A38"/>
<path d="M114.316 10.4601C114.191 10.3557 114.086 10.3139 114.045 10.293L114.316 10.4601Z" fill="#00B140"/>
<path d="M13.5608 9.83325L14.1877 6.302H0.668638L0 10.2094H4.63868L2.25665 23.5821H6.81175L9.17288 10.2094H13.4981L13.5608 9.83325ZM25.847 15.6629C27.7276 14.8898 28.4798 12.8839 28.4798 11.1078C28.4798 10.3347 28.3544 9.6243 28.0201 8.91387C27.5395 7.82733 26.7873 7.15869 25.8888 6.78258C25.0112 6.40647 24.0083 6.32289 22.9635 6.32289H15.7966L12.7459 23.5821H17.301L18.4293 17.1465C18.9517 17.1465 19.4532 17.1256 19.9547 17.1256C20.6024 17.1256 21.083 17.2092 21.4173 17.3345C21.9188 17.5435 22.1277 17.7524 22.274 18.1912C22.4203 18.6091 22.4412 19.2151 22.4412 19.9882V21.1165C22.4412 21.8687 22.5247 22.5583 22.7128 23.2896L22.7964 23.6239H27.7903L27.5186 22.9971C26.9127 21.618 26.9336 20.4897 26.8709 18.8599C26.8291 17.8778 26.7873 17.042 26.3694 16.3525C26.2231 16.1017 26.0142 15.8928 25.7635 15.7256C25.8052 15.6838 25.8261 15.6629 25.847 15.6629ZM23.2352 12.9884C22.88 13.2391 22.0024 13.2809 21.3964 13.2809C20.6442 13.2809 19.9129 13.26 19.1607 13.26L19.7248 10.1049H22.3576C22.8382 10.1049 23.2979 10.2094 23.5486 10.3765C23.8202 10.5437 23.9665 10.7735 23.9665 11.275C23.9665 12.0063 23.7366 12.675 23.2352 12.9884ZM45.3838 6.32289H40.8287L39.2616 15.2659C39.0526 16.4569 38.8646 17.648 38.384 18.4837C37.9034 19.3195 37.2766 19.8419 35.8975 19.8628C35.1662 19.8628 34.5602 19.7165 34.1423 19.4031C33.7453 19.1106 33.4946 18.6718 33.4946 17.9196C33.4946 17.1674 33.6409 16.3525 33.7871 15.5585L35.4169 6.32289H30.8618L29.3365 14.9525C29.1693 16.0181 28.9813 17.0838 28.9813 18.1912C28.9813 19.6957 29.3992 20.9285 30.1932 21.8687C31.0081 22.809 32.1573 23.3941 33.5364 23.7075C34.2677 23.8746 35.0408 24 35.8348 24C36.8169 24 37.9034 23.8329 38.8646 23.4985C40.5989 22.8717 41.7063 21.8269 42.3958 20.5523C43.0854 19.2778 43.3779 17.7733 43.6495 16.2271L45.3838 6.32289Z" fill="#046A38"/>
<path d="M114.316 8.87211C114.191 8.76764 114.086 8.72585 114.045 8.70496L114.316 8.87211Z" fill="#00B140"/>
<path d="M53.0314 14.0958L52.5717 16.8122H57.691C57.482 17.9614 57.0014 18.9226 56.3537 19.6121C55.5388 20.4688 54.4104 20.9703 52.8851 20.9912C51.2762 20.9912 50.2732 20.4688 49.5419 19.6121C48.8315 18.7554 48.4554 17.5017 48.4554 15.9555C48.4554 14.1585 49.0196 12.3616 50.0434 11.0243C51.0673 9.68701 52.4881 8.83032 54.3687 8.83032C55.2045 8.83032 55.9567 8.99748 56.5626 9.3318C57.1686 9.68701 57.6283 10.1676 57.9208 10.9407C58.0462 11.2959 58.1297 11.6511 58.1924 12.069L58.2969 12.7586L58.9864 12.7168L61.3476 12.5705L61.2013 11.7347C61.055 10.8362 60.8461 9.93775 60.3028 9.01838C59.0282 6.90799 56.7298 6.0304 54.494 6.0304H54.2642C51.4643 6.0304 49.1867 7.2632 47.6614 9.14374C46.1569 11.0034 45.342 13.4899 45.342 16.0391C45.342 17.3555 45.6764 18.6509 46.1987 19.8211C47.4315 22.4538 49.8762 23.8747 52.6971 23.8747H52.7806C54.0343 23.8747 55.3925 23.5404 56.5626 22.8717L56.4164 23.603H59.279L61.0341 14.0958H53.0523H53.0314ZM73.4039 19.1942C73.383 18.7345 73.383 18.1077 73.2995 17.4808C73.2159 16.854 73.0487 16.1435 72.5473 15.6003C72.4428 15.4958 72.3383 15.3913 72.2756 15.3286C72.8398 15.0361 73.3622 14.6391 73.7801 14.2003C74.595 13.3645 75.0546 12.1944 75.0338 10.7735C75.0546 9.20643 74.3233 7.97362 73.2786 7.28409C72.2129 6.57366 70.9383 6.32292 69.622 6.32292H63.855L60.867 23.6239H63.8967L65.1504 16.5197H66.8638H67.1146C67.7414 16.5197 68.4727 16.5405 69.0578 16.6659C69.6637 16.8122 70.019 17.042 70.1652 17.4181C70.207 17.5017 70.2906 17.836 70.3115 18.1913C70.3533 18.5465 70.3533 18.9226 70.3951 19.1942C70.4787 20.4688 70.4786 21.8061 71.1055 23.1642L71.3144 23.5821H74.5114L74.1144 22.5792C73.592 21.4091 73.4666 20.5106 73.4039 19.1942ZM71.1891 12.675C70.6876 13.1974 70.1234 13.4481 69.4339 13.6153C68.7235 13.7615 67.9504 13.7824 67.1146 13.7824C66.634 13.7824 66.1325 13.7824 65.631 13.7615L66.4459 9.03927H67.3862H68.8906H69.2667C70.0816 9.03927 70.8339 9.16464 71.2727 9.43627C71.5025 9.56164 71.6488 9.70791 71.7741 9.91686C71.8995 10.1258 71.9831 10.4183 71.9831 10.8571C71.9413 11.5676 71.6906 12.1526 71.1891 12.675ZM80.3202 9.08106H88.2393L88.3647 8.47511L88.7826 6.30203H77.7501L74.7203 23.603H86.1707L86.5886 20.824H78.2307L79.0456 16.248H86.6513L87.1319 13.5108H79.5053L80.3202 9.08106ZM92.8989 9.08106H100.818L100.943 8.47511L101.361 6.30203H90.3288L87.3409 23.603H98.7913L99.2092 20.824H90.8512L91.6661 16.248H99.2719L99.7734 13.5108H92.1467L92.8989 9.08106ZM113 23.603L115.257 10.3348L114.651 10.1258C114.254 10.0004 113.836 9.83328 113.418 9.60343L112.519 9.12285L111.078 17.3346C111.036 17.6689 110.973 17.9823 110.931 18.3375C110.701 17.7733 110.451 17.2092 110.2 16.645L105.436 6.30203H102.761L99.7734 23.603H102.74L104.725 12.069C104.746 11.9646 104.746 11.8601 104.767 11.7765C104.934 12.1735 105.122 12.6123 105.29 13.0093L110.158 23.603" fill="#00B140"/>
</svg>
